<svg width="201" height="112" viewBox="0 0 201 112" fill="none" xmlns="http://www.w3.org/2000/svg">
    <path d="M195.826 0.267456H5.17447C2.31321 0.267456 0 2.24996 0 4.69536V107.305C0 109.75 2.31321 111.736 5.17447 111.736H195.826C198.687 111.736 201 109.753 201 107.308V4.69536C201 2.24996 198.687 0.267456 195.826 0.267456ZM47.9866 54.3403C45.1538 56.1248 41.2107 57.0141 36.1145 57.0201H34.9259C34.0113 57.0201 33.118 57.6353 32.9294 58.3723L31.4988 63.665C31.2959 64.4203 30.4027 65.0233 29.4987 65.0233H25.335C24.431 65.0233 23.8652 64.402 24.0787 63.665L29.9329 41.8514C30.1464 41.1022 31.0326 40.5023 31.9365 40.4901L40.6342 40.4871C42.5132 40.5023 44.1396 40.5997 45.5488 40.819C46.9368 41.0444 48.1468 41.422 49.1717 41.958C50.1539 42.4878 50.9475 43.1974 51.4458 44.0562C52.0009 44.915 52.2465 45.99 52.2465 47.269C52.2465 50.1925 50.8408 52.5557 47.9866 54.3403ZM73.8305 51.5568L73.6739 52.4735L70.6347 63.7168C70.4568 64.3929 69.6738 64.9684 68.8446 65.0507L68.7877 65.0689H68.1863H64.9905H64.9157L64.9015 65.0568C64.1079 64.9928 63.6168 64.4172 63.7876 63.7229V63.7168L63.7947 63.6955L63.9513 63.123L63.93 63.1017L62.3605 63.9878L60.6523 64.804L58.638 65.3948C58.0188 65.5227 57.1469 65.5988 56.0223 65.5988C54.2465 65.5988 52.7589 65.1816 51.6344 64.3198C50.5169 63.4397 49.9404 62.316 49.9404 60.9395C49.9404 59.4777 50.3354 58.2413 51.129 57.212C51.9511 56.1888 53.1255 55.3909 54.7127 54.794C56.1896 54.2184 57.9654 53.7921 59.9939 53.5515C62.0652 53.2957 63.7734 53.1099 66.14 52.982L66.7378 52.6653L66.8126 52.1628C66.8126 51.3893 66.3926 50.8564 65.5563 50.5427C64.7093 50.2382 63.4353 50.0859 61.7698 50.0859C60.6381 50.0738 59.2146 50.2717 57.8658 50.5336C56.453 50.8077 56.0651 50.9874 55.3746 51.164C55.0544 51.2584 54.2821 51.3041 54.5704 50.159L55.0793 48.3653C55.0793 48.3653 55.3284 47.0102 56.912 46.7148C57.6772 46.5686 57.7982 46.5412 59.0473 46.3767C60.7377 46.1544 62.4104 46.0417 64.0865 46.0417C67.4781 46.0417 69.9621 46.4194 71.5315 47.1777C73.1081 47.9329 73.9123 49.1145 73.9052 50.7011L73.8305 51.5568ZM80.5246 73.7085L76.2113 73.7146C75.3145 73.7146 75.0191 73.1056 75.5672 72.3564L79.2576 66.8504C79.2576 66.8504 79.553 66.5368 79.2897 64.74C78.7203 61.4937 75.8875 47.6923 75.8875 47.6923C75.681 46.9462 76.2362 46.3341 77.133 46.3341L80.8662 46.328C82.0086 46.328 82.9267 46.9706 83.1331 47.7258L84.9908 57.2973L85.6812 57.3034C86.2613 56.4233 92.2258 47.6649 92.2258 47.6649C92.7952 46.9279 93.9483 46.3036 94.8451 46.3036C94.8451 46.3036 98.8558 46.3128 99.8416 46.3036C101.322 46.2854 99.7277 48.3379 99.7277 48.3379L83.1296 72.3564C82.5958 73.1056 81.4143 73.7085 80.5246 73.7085ZM123.646 54.4347C120.803 56.2101 116.842 57.1085 111.746 57.1085H110.557C109.66 57.0963 108.763 57.7206 108.557 58.4575L107.148 63.7594C106.941 64.4995 106.03 65.1085 105.148 65.0994L100.973 65.1085C100.087 65.1116 99.5035 64.4964 99.7171 63.7564L105.575 41.9306C105.788 41.1905 106.664 40.5876 107.568 40.5754L116.276 40.5693C118.144 40.5754 119.789 40.6881 121.169 40.8982C122.575 41.1175 123.785 41.4951 124.796 42.0341C125.789 42.5792 126.568 43.2766 127.088 44.1415C127.621 44.9942 127.881 46.0722 127.888 47.3512C127.888 50.2717 126.461 52.6288 123.646 54.4347ZM149.476 51.5721L149.323 52.4948L146.277 63.729C146.106 64.4081 145.319 64.9837 144.501 65.0689L144.444 65.0872H143.846C142.985 65.0872 141.17 65.0872 140.647 65.0872H140.572L140.565 65.0689C139.757 65.005 139.259 64.4325 139.454 63.7351L139.447 63.726L139.465 63.7138L139.604 63.1412L139.579 63.1138L138.02 64.0122L136.301 64.8253L134.291 65.407C133.671 65.544 132.796 65.6019 131.682 65.6171C129.903 65.6171 128.429 65.1847 127.298 64.3289C126.173 63.458 125.593 62.3281 125.593 60.9456C125.593 59.4929 125.988 58.2504 126.785 57.2272C127.6 56.204 128.792 55.4092 130.365 54.8062C131.853 54.2276 133.639 53.8073 135.657 53.5637C137.714 53.3079 139.422 53.1221 141.807 52.9973L142.405 52.6745L142.469 52.172C142.469 51.4046 142.056 50.8655 141.209 50.5549C140.362 50.2473 139.088 50.0951 137.429 50.0951C136.291 50.089 134.864 50.2839 133.518 50.5427C132.113 50.8229 131.732 50.9965 131.045 51.1731C130.696 51.2614 129.945 51.3132 130.23 50.1682L130.739 48.3775C130.739 48.3775 130.977 47.0193 132.568 46.7269C133.34 46.5838 133.465 46.5503 134.711 46.395C136.39 46.1636 138.074 46.0509 139.75 46.0509C143.127 46.0509 145.608 46.4346 147.191 47.1929C148.778 47.9481 149.572 49.1236 149.572 50.7102L149.476 51.5721ZM162.821 42.1102L157.241 63.7351L157.045 63.9909C156.715 64.6 156.01 65.0933 155.245 65.0933H151.373L151.302 65.0172C150.565 64.9197 150.085 64.4111 150.259 63.7473L150.252 63.732L150.419 63.1077L155.636 42.8198L155.821 42.1133L156.031 41.8362C156.369 41.2393 157.06 40.7551 157.825 40.7551H161.551C162.458 40.7551 163.003 41.3611 162.811 42.1041L162.821 42.1102ZM170.217 39.7714H168.821V41.358L168.832 41.7844L168.928 42.0706L169.149 42.2534L169.576 42.3112L169.925 42.2686L170.185 42.2016H170.217V42.7223L169.8 42.7924L169.405 42.8198L168.458 42.5305L168.135 41.6169V39.7714H167.665V39.2781H168.135V38.2883H168.821V39.2781H170.217V39.7714ZM176.96 40.4992V42.7437H176.288V40.7642L176.245 40.3409L176.156 40.0059L175.921 39.808L175.469 39.7379L174.903 39.8628L174.323 40.1764L174.334 40.347L174.341 40.5297V42.7497H173.665V40.7703L173.637 40.3409L173.54 40.009L173.313 39.811L172.854 39.741L172.295 39.8597L171.729 40.1612V42.7497H171.06V39.2811H171.729V39.6679L172.377 39.3146L173.046 39.1867L173.75 39.3298L174.185 39.744L174.932 39.3146L175.661 39.1867L176.647 39.5308L176.968 40.4992H176.96Z" fill="black"/>
</svg>
