<svg width="201" height="112" viewBox="0 0 201 112" fill="none" xmlns="http://www.w3.org/2000/svg">
    <path d="M195.826 0.427902H5.17447C2.31321 0.427902 0 2.41041 0 4.8558V107.468C0 109.913 2.31321 111.896 5.17447 111.896H195.826C198.687 111.896 201 109.913 201 107.468V4.8558C201 2.41041 198.687 0.427902 195.826 0.427902ZM15.5626 34.1123H37.0149C39.9082 34.2067 42.2392 34.9954 43.0435 37.6418L47.709 56.8426C43.1253 46.7991 32.0789 38.4427 15.3846 34.9832L15.5626 34.1123ZM41.5203 77.904L29.1286 41.6768C38.0363 46.5555 45.6236 54.2967 48.2962 59.6839L49.7411 64.1574L63.2929 34.5295H77.9551L56.1647 77.8949L41.5203 77.904ZM88.7311 77.9345H74.8946L83.546 34.4838H97.3896L88.7311 77.9345ZM112.81 78.5862C106.607 78.5314 100.632 77.4807 97.3932 76.2656L99.3398 66.5419L101.123 67.2332C105.667 68.8564 108.61 69.5142 114.151 69.5142C118.127 69.5142 122.387 68.1833 122.426 65.272C122.451 63.3687 120.643 62.0105 115.255 59.8787C110.002 57.8018 103.048 54.318 103.133 48.0781C103.208 39.6334 112.845 33.7407 126.522 33.7407C131.881 33.7407 136.177 34.6848 138.917 35.5649L137.049 44.9841L135.8 44.4816C133.251 43.6045 129.974 42.7579 125.444 42.8188C120.027 42.8188 117.515 44.7496 117.515 46.5555C117.486 48.5897 120.447 49.9297 125.287 51.9457C133.269 55.0458 136.96 58.8068 136.91 63.7494C136.803 72.7635 127.362 78.5862 112.81 78.5862ZM172.775 77.9528C172.775 77.9528 171.512 72.9584 171.092 71.4419C169.078 71.4419 154.956 71.4236 153.369 71.4236C152.832 72.596 150.462 77.9528 150.462 77.9528H135.931L156.476 38.1351C157.935 35.306 160.409 34.5295 163.725 34.5295H174.416L185.615 77.9497L172.775 77.9528Z" fill="black"/>
</svg>
