<svg xmlns="http://www.w3.org/2000/svg" xmlns:xlink="http://www.w3.org/1999/xlink" width="231" height="140" viewBox="0 0 231 140">
    <defs>
        <clipPath id="clip-path">
            <rect id="Rectangle_451" data-name="Rectangle 451" width="231" height="140" transform="translate(242)" fill="#fff" stroke="#707070" stroke-width="1"/>
        </clipPath>
        <clipPath id="clip-path-2">
            <path id="Path_203" data-name="Path 203" d="M75.219,69.75H304V298H75.219Zm0,0" fill="#ff7207"/>
        </clipPath>
        <clipPath id="clip-path-3">
            <path id="Path_205" data-name="Path 205" d="M77,74H306.219V302.25H77Zm0,0"/>
        </clipPath>
    </defs>
    <g id="Mask_Group_2" data-name="Mask Group 2" transform="translate(-242)" clip-path="url(#clip-path)">
        <g id="Group_76" data-name="Group 76" transform="translate(167 -99)">
            <path id="Path_200" data-name="Path 200" d="M299.773,185.68A111.545,111.545,0,0,1,77.3,196.551c-2.477-23.879,3.719-48.457,16.461-68.715a111.59,111.59,0,0,1,204.277,39.621,105.815,105.815,0,0,1,1.734,18.965c0,1.691.051.051,0-.742A111.488,111.488,0,0,0,156.98,77.543,111.7,111.7,0,0,0,76.8,179.273c-1.09,22.2,3.523,44.239,14.629,63.551a111.568,111.568,0,0,0,207.449-41.058,122.835,122.835,0,0,0,.941-15.391C299.824,185.578,299.773,183.941,299.773,185.68Zm0,0" fill="#fff"/>
            <path id="Path_201" data-name="Path 201" d="M218.855,293.516A111.4,111.4,0,0,1,101.1,247.891C87.762,228.379,80.375,204,81.813,180.266a112.417,112.417,0,0,1,23.5-61.813c28.309-36.242,77.543-51.586,121.375-37.734A111.7,111.7,0,0,1,304.582,181.16c2.578,46.074-27.269,90.215-69.562,107.242a121.953,121.953,0,0,1-16.165,5.114c-.195.05.149,2.433,0,2.484a111.662,111.662,0,0,0,85.481-98.652,116.673,116.673,0,0,0-12.051-63.9A111.548,111.548,0,0,0,83.152,166.316a117.4,117.4,0,0,0,7.289,64.446A111.539,111.539,0,0,0,201.4,298.68a114.868,114.868,0,0,0,17.453-2.731C219.055,295.949,218.707,293.566,218.855,293.516Zm0,0" fill="#fff"/>
            <g id="Group_2" data-name="Group 2" clip-path="url(#clip-path-2)">
                <path id="Path_202" data-name="Path 202" d="M243.648,283.34A112.561,112.561,0,0,1,175.324,295.5,113.428,113.428,0,0,1,126.637,89.656C146.715,75.9,171.656,69.6,195.852,71.238a113.4,113.4,0,0,1,63.265,201.676,109.21,109.21,0,0,1-16.066,10.723c-1.535.843-.1.1.6-.3a113.372,113.372,0,0,0-33.468-211.8,113.467,113.467,0,0,0-68.371,9.383c-20.282,9.73-37.735,24.477-49.582,43.691a113.38,113.38,0,0,0,67.679,169.454,113.142,113.142,0,0,0,69.016-3.825,125.59,125.59,0,0,0,14.18-6.6C243.746,283.34,245.234,282.5,243.648,283.34Zm0,0" fill="#ff7207"/>
            </g>
            <g id="Group_3" data-name="Group 3" clip-path="url(#clip-path-3)">
                <path id="Path_204" data-name="Path 204" d="M108.488,263.031a113.473,113.473,0,0,1-16.113-127.25c10.957-21.347,29.152-39.719,50.969-49.847A113.66,113.66,0,0,1,209.785,77.1c45.961,7.793,83.395,44.382,92.172,90.261a113.51,113.51,0,0,1-51.914,118.114C210.23,310,156.484,304.59,120.883,275.047a129.041,129.041,0,0,1-12.4-12.016c-.148-.148-2.082,1.34-2.23,1.192a113.163,113.163,0,0,0,129.207,28.8c20.48-8.836,38.527-23.086,51.121-41.555A113.352,113.352,0,0,0,156.434,80.324a119.1,119.1,0,0,0-53.993,37.633,113.548,113.548,0,0,0-6.992,131.918,112.68,112.68,0,0,0,10.86,14.3C106.457,264.371,108.391,262.883,108.488,263.031Zm0,0"/>
            </g>
            <g id="Group_5" data-name="Group 5">
                <g id="Group_4" data-name="Group 4" transform="translate(123.42 183.752)">
                    <path id="Path_206" data-name="Path 206" d="M5.219-18.844c0,.25-.008.574-.016.969s-.027.828-.047,1.328-.027,1.043-.047,1.625-.039,1.172-.047,1.8a8.229,8.229,0,0,1,1.078-.516c.426-.176.867-.363,1.328-.562s.93-.41,1.391-.641a8.344,8.344,0,0,0,1.281-.766,12.237,12.237,0,0,0,2.125-1.953,2.722,2.722,0,0,0,.719-1.641,1.227,1.227,0,0,0-.109-.531,1.7,1.7,0,0,0-.234-.391,3.882,3.882,0,0,0-1.078-.344,9.033,9.033,0,0,0-1.734-.141,12.732,12.732,0,0,0-1.953.156A17.278,17.278,0,0,0,6-20.078c-.605.148-1.172.309-1.7.484s-.984.344-1.391.5-.734.3-.984.422-.4.184-.453.2a.994.994,0,0,0-.187.109.326.326,0,0,1-.187.063.282.282,0,0,1-.281-.156.475.475,0,0,1-.047-.328.378.378,0,0,1-.2-.172,1.328,1.328,0,0,1-.125-.3,1.441,1.441,0,0,1-.062-.3,2.1,2.1,0,0,1-.016-.234.7.7,0,0,1,.266-.547,2.681,2.681,0,0,1,.719-.437c.07-.031.227-.1.469-.219s.563-.242.938-.391.816-.316,1.3-.484.988-.316,1.531-.453,1.1-.266,1.672-.359a10.514,10.514,0,0,1,1.7-.141c.406.012.836.039,1.3.078a7.7,7.7,0,0,1,1.359.219,5.729,5.729,0,0,1,1.25.484,3.111,3.111,0,0,1,1,.844,3.109,3.109,0,0,1,.766.938,2.737,2.737,0,0,1,.344,1.406,4.761,4.761,0,0,1-.109,1.047,4,4,0,0,1-.172.641,6.088,6.088,0,0,1-1.047,1.75,7.651,7.651,0,0,1-1.359,1.266,10.182,10.182,0,0,1-1.453.875c-.492.242-.934.438-1.328.594.438,0,.883.023,1.344.063a8.951,8.951,0,0,1,1.375.234,5.976,5.976,0,0,1,1.313.469,5.358,5.358,0,0,1,1.156.8,6.405,6.405,0,0,1,.625.813,4.731,4.731,0,0,1,.422.891,2.945,2.945,0,0,1,.2,1.094,3.573,3.573,0,0,1,.094.859,8.831,8.831,0,0,1-.094,1.219,6.255,6.255,0,0,1-.391,1.391A6.767,6.767,0,0,1,14.578-3.2a9.324,9.324,0,0,1-1.719,1.656A10.32,10.32,0,0,1,10.234-.156a11.888,11.888,0,0,1-1.8.563A7.264,7.264,0,0,1,6.969.578,4.489,4.489,0,0,1,6.281.516,3.868,3.868,0,0,1,5.594.328,1.844,1.844,0,0,1,5.063.047a.512.512,0,0,1-.2-.406.188.188,0,0,0-.078-.172c-.055-.039-.109-.086-.172-.141a1.536,1.536,0,0,1-.187.422,1.045,1.045,0,0,1-.2.25.935.935,0,0,1-.25.156A.2.2,0,0,1,3.859.125.194.194,0,0,1,3.719,0a1.511,1.511,0,0,1-.172.25q-.094.141-.187.141c-.031,0-.078-.008-.141-.016S3.109.3,3.047.172a4.257,4.257,0,0,1-.172-.687C2.82-.848,2.77-1.344,2.719-2s-.078-1.523-.109-2.578-.047-2.363-.047-3.937v-2c0-.707,0-1.4.016-2.078s.023-1.344.047-1.969.066-1.207.109-1.719a11.731,11.731,0,0,1,.188-1.3A1.543,1.543,0,0,1,3.2-18.3a1.174,1.174,0,0,1,.438-.3c.219-.094.43-.176.641-.25a5.425,5.425,0,0,1,.547-.187c.156-.051.223-.086.2-.109a.281.281,0,0,1,.125.109A.271.271,0,0,1,5.219-18.844Zm.547,8.063a.723.723,0,0,1-.328-.125c-.137-.082-.289-.18-.453-.3L4.891-8.578c-.031.875-.062,1.711-.094,2.5S4.738-4.57,4.719-3.906,4.7-2.68,4.7-2.234A5.707,5.707,0,0,1,5.109-2.8a5,5,0,0,1,.422-.484,3.461,3.461,0,0,1,.391-.344A.616.616,0,0,1,6.2-3.75a.209.209,0,0,1,.063.016,1.424,1.424,0,0,1,.141.125.134.134,0,0,0,.063-.016.164.164,0,0,1,.063-.016.21.21,0,0,1,.188.109,1,1,0,0,1,.063.422.473.473,0,0,1-.094.3,1.378,1.378,0,0,1-.219.234q-.111.094-.234.188a.6.6,0,0,0-.156.188,1.344,1.344,0,0,0,.25.047,3.153,3.153,0,0,0,.391.016l.563-.047a7.223,7.223,0,0,0,1.109-.234,10.862,10.862,0,0,0,1.547-.625,11.517,11.517,0,0,0,1.938-1.2,7.609,7.609,0,0,0,1.438-1.375,6.948,6.948,0,0,0,.828-1.312,4.923,4.923,0,0,0,.391-1.094,3.919,3.919,0,0,0,.094-.672,1.824,1.824,0,0,0-.5-1.047,3.556,3.556,0,0,0-1.141-.828,6.876,6.876,0,0,0-1.656-.531A10.631,10.631,0,0,0,9.281-11.3a9.728,9.728,0,0,0-1.3.078c-.375.055-.711.117-1,.188s-.523.121-.719.172A1.934,1.934,0,0,1,5.766-10.781Zm0,0" fill="#fff"/>
                </g>
            </g>
            <g id="Group_7" data-name="Group 7">
                <g id="Group_6" data-name="Group 6" transform="translate(140.728 183.752)">
                    <path id="Path_207" data-name="Path 207" d="M5.094-20.391a4.465,4.465,0,0,1-.031.7,4.579,4.579,0,0,1-.125.734,2.477,2.477,0,0,1-.234.641.859.859,0,0,1-.344.391,2.011,2.011,0,0,1-.906.266,1.035,1.035,0,0,1-.547-.141,4.941,4.941,0,0,1-.437-.344,1.993,1.993,0,0,1-.531-.656,1.724,1.724,0,0,1-.2-.781,3.422,3.422,0,0,1,.094-.719,6.83,6.83,0,0,1,.266-.844,6.154,6.154,0,0,1,.328-.734,1.449,1.449,0,0,1,.359-.469.905.905,0,0,1,.484-.234.876.876,0,0,1,.375.016,3.379,3.379,0,0,1,.609.2A1.022,1.022,0,0,1,4.688-22a1.6,1.6,0,0,1,.281.625A5.871,5.871,0,0,1,5.094-20.391ZM3.813-13.406a1.122,1.122,0,0,1,.109.516,11.158,11.158,0,0,1,.047,1.141c0,.313-.008.652-.016,1.016s-.027.742-.047,1.125-.027.777-.047,1.172-.039.758-.047,1.109C3.781-6.742,3.758-6.2,3.75-5.7v1.422c0,.605,0,1.156.016,1.656s.016.918.016,1.25a5.719,5.719,0,0,1-.047.844c-.023.188-.074.293-.156.313a.453.453,0,0,0-.234.141,2.5,2.5,0,0,0-.172.188.8.8,0,0,1-.187.156A.267.267,0,0,1,2.75.313.978.978,0,0,1,2.484.172c-.125-.086-.262-.18-.406-.3a3.7,3.7,0,0,1-.391-.422,1.225,1.225,0,0,1-.25-.484,3.22,3.22,0,0,1-.062-.5c-.012-.25-.023-.551-.031-.906S1.32-3.18,1.313-3.609s-.023-.875-.031-1.312V-7.391c0-.531.016-1.07.047-1.625s.082-1.066.125-1.547.1-.894.141-1.25.086-.617.109-.766a4.129,4.129,0,0,1,.125-.578,1,1,0,0,1,.156-.312.359.359,0,0,1,.172-.109,1.626,1.626,0,0,1,.188-.047,2.089,2.089,0,0,1,.422-.016q.246.018.469.047a2.02,2.02,0,0,1,.375.094A.418.418,0,0,1,3.813-13.406Zm0,0" fill="#fff"/>
                </g>
            </g>
            <g id="Group_9" data-name="Group 9">
                <g id="Group_8" data-name="Group 8" transform="translate(146.164 183.752)">
                    <path id="Path_208" data-name="Path 208" d="M4.156-21.094a4.169,4.169,0,0,1-.016.531q-.035.486-.094,1.266c-.031.524-.074,1.121-.125,1.8s-.109,1.391-.172,2.141-.109,1.5-.172,2.281-.105,1.512-.156,2.219-.1,1.367-.141,1.969S3.223-7.773,3.2-7.359a4.594,4.594,0,0,0,.781-.609c.312-.289.633-.617.969-.984S5.645-9.7,6-10.094s.688-.785,1-1.141.594-.687.844-.969a6.662,6.662,0,0,1,.578-.594,1.624,1.624,0,0,1,.469-.3.584.584,0,0,1,.328-.047.328.328,0,0,1,.219.109.916.916,0,0,1,.156.172,1.289,1.289,0,0,1,.078.219.665.665,0,0,1,.031.281.685.685,0,0,1-.125.3,1.015,1.015,0,0,1-.328.313,4.529,4.529,0,0,0-.891.938c-.312.418-.664.871-1.047,1.359A17.923,17.923,0,0,1,6.047-8.016,6.031,6.031,0,0,1,4.578-6.875a5.961,5.961,0,0,1,.547.672c.219.293.457.609.719.953s.563.7.875,1.047a8.3,8.3,0,0,0,1.031.969,5.731,5.731,0,0,0,1.188.719,3.191,3.191,0,0,0,1.328.281,5.03,5.03,0,0,0,1.375-.141,5.614,5.614,0,0,0,1.078-.406,4.137,4.137,0,0,0,.734-.469,3.435,3.435,0,0,0,.406-.359c.188-.258.344-.344.469-.25s.191.3.172.625a2.6,2.6,0,0,1-.156.578,5.484,5.484,0,0,1-.375.828,8.264,8.264,0,0,1-.609.938,5.158,5.158,0,0,1-.844.859,4.21,4.21,0,0,1-1.078.641,3.365,3.365,0,0,1-1.3.25A3.646,3.646,0,0,1,8.469.469a6.116,6.116,0,0,1-1.391-1A9.743,9.743,0,0,1,5.891-1.891q-.533-.762-1-1.5T4-4.75a5.548,5.548,0,0,0-.8-.984,4.458,4.458,0,0,1,.031.516V-4.7c0,.543-.008,1.117-.016,1.719S3.211-1.836,3.2-1.328,3.18-.379,3.172-.016V.609a.278.278,0,0,1-.187.3.889.889,0,0,1-.359.078A.855.855,0,0,1,2.2.828,3.578,3.578,0,0,1,1.734.484C1.578.359,1.426.227,1.281.094s-.234-.238-.3-.312A2.224,2.224,0,0,1,.859-1C.836-1.445.828-2.039.828-2.781c0-.531,0-1.125.016-1.781S.867-5.93.891-6.672.953-8.2.984-9s.066-1.629.109-2.453c.063-1.395.117-2.617.172-3.672s.1-1.957.156-2.719.113-1.406.188-1.906a7.443,7.443,0,0,1,.25-1.2.8.8,0,0,1,.2-.25,1.222,1.222,0,0,1,.406-.234c.238-.082.453-.164.641-.25a1.267,1.267,0,0,1,.375-.141.394.394,0,0,1,.219.078,1.131,1.131,0,0,1,.219.188,1.286,1.286,0,0,1,.156.234A.967.967,0,0,1,4.156-21.094Zm0,0" fill="#fff"/>
                </g>
            </g>
            <g id="Group_11" data-name="Group 11">
                <g id="Group_10" data-name="Group 10" transform="translate(160.364 183.752)">
                    <path id="Path_209" data-name="Path 209" d="M11.3-5.7c0,.117,0,.25.016.406s.016.336.016.531a5.316,5.316,0,0,1-.109.937,6.6,6.6,0,0,1-.359,1.156,6.32,6.32,0,0,1-.641,1.219,5,5,0,0,1-1,1.094A4.888,4.888,0,0,1,7.813.422,5.008,5.008,0,0,1,5.984.734,5.43,5.43,0,0,1,4.094.375,5.114,5.114,0,0,1,2.344-.7a5.962,5.962,0,0,1-1.3-1.891,6.847,6.847,0,0,1-.5-2.75A7.818,7.818,0,0,1,.8-7.312a10.321,10.321,0,0,1,.688-1.828A9,9,0,0,1,2.5-10.719a8.148,8.148,0,0,1,1.234-1.25A5.872,5.872,0,0,1,5.078-12.8a3.534,3.534,0,0,1,1.359-.3,4.3,4.3,0,0,1,1.875.359,3.5,3.5,0,0,1,1.188.891,3.208,3.208,0,0,1,.609,1.141A3.64,3.64,0,0,1,10.3-9.625a3.058,3.058,0,0,1-.234,1.078,3.376,3.376,0,0,1-.734,1.141A4.336,4.336,0,0,1,7.984-6.5a5.068,5.068,0,0,1-2.031.359A3.561,3.561,0,0,1,4.8-6.312a3.966,3.966,0,0,1-.891-.453,4.025,4.025,0,0,1-.672-.594c-.18-.219-.328-.422-.453-.609A8.183,8.183,0,0,0,2.5-5.7a4.833,4.833,0,0,0,.25,1.609,3.653,3.653,0,0,0,.719,1.2,2.974,2.974,0,0,0,1.078.766,3.426,3.426,0,0,0,1.375.266,3.966,3.966,0,0,0,1.641-.313,4.58,4.58,0,0,0,1.219-.812,5.7,5.7,0,0,0,.906-1.047c.258-.383.484-.734.672-1.047s.348-.586.484-.8.285-.3.422-.3c.063,0,.094.055.094.156a1.01,1.01,0,0,1-.016.156A1.045,1.045,0,0,1,11.3-5.7Zm-4.7-5.812a2.951,2.951,0,0,0-.734.125,3.644,3.644,0,0,0-.937.406,4.714,4.714,0,0,0-.969.813,4.562,4.562,0,0,0-.844,1.281q.217-.105.375-.187a.74.74,0,0,1,.234-.078c.02,0,.051.023.094.063a2.15,2.15,0,0,0,.891.875,2.869,2.869,0,0,0,1.219.25,2.132,2.132,0,0,0,.906-.172,2.047,2.047,0,0,0,.641-.469,1.806,1.806,0,0,0,.359-.609,2.279,2.279,0,0,0,.109-.672,1.816,1.816,0,0,0-.359-1.156A1.179,1.179,0,0,0,6.594-11.516Zm0,0" fill="#fff"/>
                </g>
            </g>
            <g id="Group_13" data-name="Group 13">
                <g id="Group_12" data-name="Group 12" transform="translate(172.673 183.752)">
                    <path id="Path_210" data-name="Path 210" d="M8.672-11.234a7.057,7.057,0,0,1-.094.906,5.771,5.771,0,0,1-.187.844,3.415,3.415,0,0,1-.312.7,1.81,1.81,0,0,1-.391.5.541.541,0,0,1-.3.156A.279.279,0,0,1,7.2-8.187a.565.565,0,0,1-.109-.141.2.2,0,0,0-.125-.094.4.4,0,0,0-.172.016.591.591,0,0,1-.2,0,.338.338,0,0,1-.187-.109A.777.777,0,0,1,6.3-8.891a3.7,3.7,0,0,1,.016-.766,7.763,7.763,0,0,0,.063-.938,2.062,2.062,0,0,0-.094-.672c-.055-.187-.152-.281-.3-.281a.986.986,0,0,0-.391.172A2.057,2.057,0,0,0,5-10.687a7.418,7.418,0,0,0-.656,1.547,14.3,14.3,0,0,0-.531,2.672c0,1.438.008,2.594.031,3.469s.031,1.559.031,2.047c0,.418-.012.715-.031.891a.467.467,0,0,1-.156.344,1.547,1.547,0,0,1-.312.109c-.148.051-.309.1-.484.141s-.328.078-.484.109a1.021,1.021,0,0,1-.3.031A.832.832,0,0,1,1.938.563a2.193,2.193,0,0,1-.266-.2A2.48,2.48,0,0,1,1.438.094a.457.457,0,0,1-.125-.219,4.325,4.325,0,0,1-.031-.7c.008-.375.016-.82.016-1.344s.02-1.086.031-1.7.016-1.242.016-1.859c0-.395.008-.832.031-1.312s.063-.984.094-1.484S1.551-9.52,1.594-10s.078-.906.109-1.281.07-.7.094-.953.051-.414.063-.469c.008-.082.047-.113.109-.094a.882.882,0,0,1,.219.109c.082.055.156.1.219.141s.1.043.125,0c.02-.094.1-.1.234-.031a2.546,2.546,0,0,1,.375.219.6.6,0,0,0,.141.141.57.57,0,0,1,.172.141.586.586,0,0,1,.125.219.985.985,0,0,1,.063.375c0,.148.008.367.031.656s.047.637.078,1.031c.113-.375.25-.77.406-1.188a6.048,6.048,0,0,1,.594-1.141A3.3,3.3,0,0,1,5.563-13a1.867,1.867,0,0,1,1.125-.344,1.974,1.974,0,0,1,.719.141,1.865,1.865,0,0,1,.641.422,2.01,2.01,0,0,1,.469.656A2.1,2.1,0,0,1,8.672-11.234Zm0,0" fill="#fff"/>
                </g>
            </g>
            <g id="Group_15" data-name="Group 15">
                <g id="Group_14" data-name="Group 14" transform="translate(181.374 183.752)">
                    <path id="Path_211" data-name="Path 211" d="M10.781-12.281a.417.417,0,0,1,.047.188,1.743,1.743,0,0,1,.016.219,1.563,1.563,0,0,1-.531,1.047,4.572,4.572,0,0,1-1.641,1,1.152,1.152,0,0,1-.422.094.653.653,0,0,1-.406-.125.387.387,0,0,1-.156-.281.358.358,0,0,1,.109-.219l.25-.25c.094-.082.176-.16.25-.234s.125-.129.125-.172c0-.082-.07-.125-.2-.125a2.3,2.3,0,0,0-.8.188,7.78,7.78,0,0,0-1.031.469c-.355.188-.719.4-1.094.625a10.755,10.755,0,0,0-.984.656c-.293.211-.531.4-.719.563s-.266.289-.266.359c0,.043.039.063.125.063h.453q.422,0,1.078.047a12.033,12.033,0,0,1,1.406.188,10.263,10.263,0,0,1,1.469.375,4.817,4.817,0,0,1,1.328.641,3.572,3.572,0,0,1,.969.984,2.474,2.474,0,0,1,.375,1.375,3.04,3.04,0,0,1-.141.875,3.1,3.1,0,0,1-.469.938,5.5,5.5,0,0,1-.906.969,8.777,8.777,0,0,1-1.469.969A13.194,13.194,0,0,1,5.031.2,7.527,7.527,0,0,1,2.938.547,3.063,3.063,0,0,1,1.016,0a1.858,1.858,0,0,1-.7-1.562A2.71,2.71,0,0,1,.594-2.844a3.269,3.269,0,0,1,.688-.875,2.6,2.6,0,0,1,.781-.516,2.086,2.086,0,0,1,.594-.187.6.6,0,0,0,.156-.016,1.009,1.009,0,0,1,.156-.016c.094,0,.141.059.141.172v.156a.325.325,0,0,0,.047.172.234.234,0,0,1,.047.141q0,.094-.234.281c-.148.125-.309.273-.484.438a5.831,5.831,0,0,0-.5.531.886.886,0,0,0-.219.547c0,.211.164.313.5.313a4.091,4.091,0,0,0,1.313-.234,8.2,8.2,0,0,0,1.359-.625A9.9,9.9,0,0,0,6.2-3.406a12.048,12.048,0,0,0,1.063-.937,6.105,6.105,0,0,0,.719-.844,1.325,1.325,0,0,0,.266-.641.515.515,0,0,0-.328-.453,3.194,3.194,0,0,0-.875-.281A9.23,9.23,0,0,0,5.766-6.7Q5.027-6.75,4.219-6.75a10.729,10.729,0,0,0-1.406.078,6.4,6.4,0,0,1-.672.078c-.062,0-.168,0-.313-.016a1.341,1.341,0,0,1-.422-.141,1.126,1.126,0,0,1-.359-.359,1.2,1.2,0,0,1-.156-.672,2.092,2.092,0,0,1,.125-.672,3.1,3.1,0,0,1,.469-.8,7.052,7.052,0,0,1,.922-.937,12.083,12.083,0,0,1,1.5-1.047,15.319,15.319,0,0,1,1.781-.937A13.344,13.344,0,0,1,7.2-12.75a7.948,7.948,0,0,1,1.2-.266,5.943,5.943,0,0,1,.813-.078,2.265,2.265,0,0,1,1.047.188A1.121,1.121,0,0,1,10.781-12.281Zm0,0" fill="#fff"/>
                </g>
            </g>
            <g id="Group_17" data-name="Group 17">
                <g id="Group_16" data-name="Group 16" transform="translate(193.121 183.752)">
                    <path id="Path_212" data-name="Path 212" d="M18.078-16.953a6.024,6.024,0,0,1-.281,1.8,7.082,7.082,0,0,1-.828,1.75,8.958,8.958,0,0,1-1.3,1.594,9.1,9.1,0,0,1-1.687,1.328,9.73,9.73,0,0,1-2,.922,8.8,8.8,0,0,1-2.25.438,1.37,1.37,0,0,1-.437,0q-.205-.047-.375-.094c-.086-.031-.2-.078-.359-.141A1.465,1.465,0,0,1,8.281-9.5c-.062-.062-.152-.156-.266-.281a3.084,3.084,0,0,1-.234-.328.5.5,0,0,1-.047-.25c.008-.125.016-.266.016-.422s-.008-.3-.016-.453.016-.258.047-.281.066,0,.141.063a1.243,1.243,0,0,0,.469.125.905.905,0,0,0,.313.016,2.644,2.644,0,0,0,.359-.047,4.866,4.866,0,0,0,1.266-.312,9.253,9.253,0,0,0,1.469-.7,12.226,12.226,0,0,0,1.5-1.016,9.274,9.274,0,0,0,1.3-1.266,6.1,6.1,0,0,0,.922-1.422,3.49,3.49,0,0,0,.359-1.516,2.88,2.88,0,0,0-.234-1.141,3.928,3.928,0,0,0-.734-1.109,2.328,2.328,0,0,0-1.219-.562,10.24,10.24,0,0,0-2.172-.2,16.994,16.994,0,0,0-2.312.172,15.144,15.144,0,0,0-2.453.563q-1.049.346-1.781.609c-.492.168-.914.32-1.266.453s-.633.25-.859.344l-.578.25c-.168.063-.32.125-.453.188a3.382,3.382,0,0,1-.437.141,1.489,1.489,0,0,1-.344.094h-.2a.684.684,0,0,1-.187-.062.693.693,0,0,0-.125-.094.156.156,0,0,0-.125-.031.644.644,0,0,0-.125.016.173.173,0,0,1-.109,0,.214.214,0,0,1-.125-.109,2.044,2.044,0,0,1-.125-.266.456.456,0,0,1-.047-.172.425.425,0,0,1,0-.141c.012-.039.027-.094.047-.156a.424.424,0,0,0,0-.172.966.966,0,0,1-.016-.141.2.2,0,0,1,.016-.125.371.371,0,0,1,.125-.172c.145-.113.383-.289.719-.531a14.337,14.337,0,0,1,1.234-.781q.75-.433,1.7-.891a19.645,19.645,0,0,1,2.094-.828A18.726,18.726,0,0,1,8.2-23.094a15.481,15.481,0,0,1,2.7-.3,7.594,7.594,0,0,1,2.469.313,6.512,6.512,0,0,1,1.875.891,5.631,5.631,0,0,1,1.328,1.266,7.319,7.319,0,0,1,.875,1.422,6.707,6.707,0,0,1,.469,1.391A7.046,7.046,0,0,1,18.078-16.953ZM7.359-19.047c-.012.055-.031.23-.062.531s-.055.7-.094,1.172-.07,1.008-.109,1.609-.086,1.234-.125,1.891-.086,1.324-.125,2-.055,1.309-.062,1.922c-.023.625-.039,1.273-.047,1.938s-.016,1.324-.016,2c0,.781.016,1.555.047,2.312s.109,1.5.2,2.2a.906.906,0,0,1-.047.563.776.776,0,0,0-.109.359.135.135,0,0,0,.047.094c.031.023.035.043.016.063A.154.154,0,0,1,6.7-.328a.36.36,0,0,1-.2-.094.371.371,0,0,1-.078-.109,1.231,1.231,0,0,0-.062-.125A.1.1,0,0,0,6.281-.7c-.031-.008-.078.012-.141.063a2.021,2.021,0,0,0-.187.219c-.062.094-.133.2-.2.3S5.6.051,5.531.125a.533.533,0,0,1-.219.156C5.25.3,5.172.32,5.078.344A.114.114,0,0,1,4.922.25C4.9.207,4.879.18,4.859.172S4.813.145,4.781.125A.262.262,0,0,1,4.688.063a.259.259,0,0,1-.047-.156,1.172,1.172,0,0,0-.187-.391A.545.545,0,0,1,4.359-.8c-.023-.176-.074-.688-.156-1.531s-.109-2.008-.109-3.5c0-.594,0-1.238.016-1.937s.055-1.437.109-2.219c.051-.7.113-1.453.188-2.266s.145-1.609.219-2.391.156-1.508.219-2.187.109-1.234.141-1.672a.169.169,0,0,1,.078-.141.619.619,0,0,1,.172-.047c.07-.008.164-.02.281-.031a2.1,2.1,0,0,0,.406-.125,4.448,4.448,0,0,1,.438-.187,3.789,3.789,0,0,1,.484-.141,1.216,1.216,0,0,1,.375-.047A.143.143,0,0,1,7.359-19.047Zm0,0" fill="#fff"/>
                </g>
            </g>
            <g id="Group_19" data-name="Group 19">
                <g id="Group_18" data-name="Group 18" transform="translate(211.383 183.752)">
                    <path id="Path_213" data-name="Path 213" d="M11.938-6.594a8.545,8.545,0,0,1-.484,2.953,6.651,6.651,0,0,1-1.3,2.234A5.655,5.655,0,0,1,8.266.016a5.382,5.382,0,0,1-2.281.5A5.4,5.4,0,0,1,4.891.391,5.29,5.29,0,0,1,3.7.016a5.454,5.454,0,0,1-1.156-.7,4.571,4.571,0,0,1-1-1.078,5.433,5.433,0,0,1-.7-1.5A6.685,6.685,0,0,1,.609-5.25,8.051,8.051,0,0,1,.922-7.578a8.416,8.416,0,0,1,.8-1.891,6.906,6.906,0,0,1,1.125-1.453,8.2,8.2,0,0,1,1.25-1.016,5.3,5.3,0,0,1,1.2-.625,4.206,4.206,0,0,1,1-.234q.217-.012.188.047a.3.3,0,0,1-.109.141c-.062.055-.121.106-.172.156s-.023.086.063.094c.07.023.129.043.172.063s.1.047.156.078l.125-.141a.36.36,0,0,1,.2-.078.555.555,0,0,1,.188.031.563.563,0,0,0,.125.016c.031,0,.051-.031.063-.094.02-.113.055-.176.109-.187a1.672,1.672,0,0,1,.406-.031,2.355,2.355,0,0,1,.563.109,3.856,3.856,0,0,1,.844.375,4.85,4.85,0,0,1,.938.719,4.627,4.627,0,0,1,.875,1.125,6.291,6.291,0,0,1,.656,1.609A8.6,8.6,0,0,1,11.938-6.594ZM6.3-11.172a5.013,5.013,0,0,0-1.078.891,7.24,7.24,0,0,0-.969,1.3,7.58,7.58,0,0,0-.687,1.641A6.67,6.67,0,0,0,3.3-5.437a9.338,9.338,0,0,0,.188,1.953,5.05,5.05,0,0,0,.578,1.5,2.914,2.914,0,0,0,.906.953A2.343,2.343,0,0,0,6.2-.7a2.372,2.372,0,0,0,1.2-.344A3.205,3.205,0,0,0,8.484-2.078a5.672,5.672,0,0,0,.75-1.7,8.516,8.516,0,0,0,.3-2.359,6.353,6.353,0,0,0-.359-2.281,5.751,5.751,0,0,0-.812-1.484,3.1,3.1,0,0,0-.844-.813,1.756,1.756,0,0,0-.5-.25H6.672A.8.8,0,0,1,6.3-11.172Zm0,0" fill="#fff"/>
                </g>
            </g>
            <g id="Group_21" data-name="Group 21">
                <g id="Group_20" data-name="Group 20" transform="translate(224.473 183.752)">
                    <path id="Path_214" data-name="Path 214" d="M8.672-11.234a7.057,7.057,0,0,1-.094.906,5.771,5.771,0,0,1-.187.844,3.415,3.415,0,0,1-.312.7,1.81,1.81,0,0,1-.391.5.541.541,0,0,1-.3.156A.279.279,0,0,1,7.2-8.187a.565.565,0,0,1-.109-.141.2.2,0,0,0-.125-.094.4.4,0,0,0-.172.016.591.591,0,0,1-.2,0,.338.338,0,0,1-.187-.109A.777.777,0,0,1,6.3-8.891a3.7,3.7,0,0,1,.016-.766,7.763,7.763,0,0,0,.063-.938,2.062,2.062,0,0,0-.094-.672c-.055-.187-.152-.281-.3-.281a.986.986,0,0,0-.391.172A2.057,2.057,0,0,0,5-10.687a7.418,7.418,0,0,0-.656,1.547,14.3,14.3,0,0,0-.531,2.672c0,1.438.008,2.594.031,3.469s.031,1.559.031,2.047c0,.418-.012.715-.031.891a.467.467,0,0,1-.156.344,1.547,1.547,0,0,1-.312.109c-.148.051-.309.1-.484.141s-.328.078-.484.109a1.021,1.021,0,0,1-.3.031A.832.832,0,0,1,1.938.563a2.193,2.193,0,0,1-.266-.2A2.48,2.48,0,0,1,1.438.094a.457.457,0,0,1-.125-.219,4.325,4.325,0,0,1-.031-.7c.008-.375.016-.82.016-1.344s.02-1.086.031-1.7.016-1.242.016-1.859c0-.395.008-.832.031-1.312s.063-.984.094-1.484S1.551-9.52,1.594-10s.078-.906.109-1.281.07-.7.094-.953.051-.414.063-.469c.008-.082.047-.113.109-.094a.882.882,0,0,1,.219.109c.082.055.156.1.219.141s.1.043.125,0c.02-.094.1-.1.234-.031a2.546,2.546,0,0,1,.375.219.6.6,0,0,0,.141.141.57.57,0,0,1,.172.141.586.586,0,0,1,.125.219.985.985,0,0,1,.063.375c0,.148.008.367.031.656s.047.637.078,1.031c.113-.375.25-.77.406-1.188a6.048,6.048,0,0,1,.594-1.141A3.3,3.3,0,0,1,5.563-13a1.867,1.867,0,0,1,1.125-.344,1.974,1.974,0,0,1,.719.141,1.865,1.865,0,0,1,.641.422,2.01,2.01,0,0,1,.469.656A2.1,2.1,0,0,1,8.672-11.234Zm0,0" fill="#fff"/>
                </g>
            </g>
            <g id="Group_23" data-name="Group 23">
                <g id="Group_22" data-name="Group 22" transform="translate(233.174 183.752)">
                    <path id="Path_215" data-name="Path 215" d="M5.438-18.375c0,.063-.012.23-.031.5s-.055.609-.094,1.047-.074.949-.125,1.531-.105,1.2-.156,1.859c.656-.082,1.273-.144,1.859-.187s1.094-.078,1.5-.078a.823.823,0,0,1,.359.078.911.911,0,0,1,.25.188.775.775,0,0,1,.172.219.842.842,0,0,1,.078.188.685.685,0,0,0,.016.156.774.774,0,0,1,.016.141A.934.934,0,0,1,9-12.109a1.244,1.244,0,0,1-.812.391l-3.328.359c-.055.75-.1,1.523-.141,2.313s-.086,1.586-.125,2.375-.059,1.555-.078,2.313S4.484-2.879,4.484-2.2c0,.438.008.793.031,1.063s.031.449.031.531a1.421,1.421,0,0,1-.109.531A2.159,2.159,0,0,1,4.2.375a1.341,1.341,0,0,1-.281.344.384.384,0,0,1-.234.141A1.151,1.151,0,0,1,2.8.5a2.208,2.208,0,0,1-.5-.937,6.935,6.935,0,0,1-.2-1.359q-.047-.762-.047-1.594,0-1.951.109-3.906c.07-1.312.176-2.57.313-3.781l-1.953.234a.393.393,0,0,0-.094.016.323.323,0,0,1-.109.016.722.722,0,0,1-.469-.141.931.931,0,0,1-.281-.328,1.052,1.052,0,0,1-.109-.375,2.368,2.368,0,0,1-.031-.312,1.361,1.361,0,0,1,.063-.406.337.337,0,0,1,.234-.234,7.065,7.065,0,0,1,1.141-.266c.551-.1,1.172-.207,1.859-.312q.17-1.266.344-2.312c.125-.707.242-1.316.359-1.828a12.317,12.317,0,0,1,.313-1.2c.1-.289.191-.437.266-.437a.392.392,0,0,1,.078.016.213.213,0,0,0,.078.016.15.15,0,0,0,.141-.094.231.231,0,0,1,.219-.109.584.584,0,0,1,.3.094,1.143,1.143,0,0,1,.3.2,1.467,1.467,0,0,1,.234.266A.39.39,0,0,1,5.438-18.375Zm0,0" fill="#fff"/>
                </g>
            </g>
            <g id="Group_25" data-name="Group 25">
                <g id="Group_24" data-name="Group 24" transform="translate(240.954 183.752)">
                    <path id="Path_216" data-name="Path 216" d="M10.469-9.156a9.029,9.029,0,0,1-.094,1.344c-.074.523-.156,1.086-.25,1.688s-.184,1.2-.266,1.828a12.976,12.976,0,0,0-.125,1.766,6.435,6.435,0,0,0,.078,1.047,2.712,2.712,0,0,0,.266.844.826.826,0,0,1,.109.359A.928.928,0,0,1,10.172,0c-.023.07-.043.133-.062.188a.218.218,0,0,0,0,.172.209.209,0,0,1-.016.172.54.54,0,0,1-.141.188.493.493,0,0,1-.219.125.208.208,0,0,1-.2-.016A.745.745,0,0,0,9.25.7a.423.423,0,0,0-.172,0,1.243,1.243,0,0,0-.125.063.139.139,0,0,1-.125,0c-.18-.094-.371-.2-.578-.328A.936.936,0,0,1,7.844.031a1.037,1.037,0,0,1-.125-.312Q7.672-.5,7.625-.8c-.023-.2-.043-.41-.062-.641s-.039-.453-.047-.672A7.578,7.578,0,0,1,6.406-.5,5.7,5.7,0,0,1,5.234.516a4.028,4.028,0,0,1-1.156.547,3.988,3.988,0,0,1-1.031.156,2.746,2.746,0,0,1-.859-.125A1.789,1.789,0,0,1,1.625.8,10.166,10.166,0,0,1,.531-.437,1.277,1.277,0,0,1,.25-1.219,5.067,5.067,0,0,1,.734-3.062,6.918,6.918,0,0,1,1.75-4.609,8.442,8.442,0,0,1,3.109-5.891,13.653,13.653,0,0,1,4.656-6.906a12.055,12.055,0,0,1,1.563-.75c.508-.207.973-.375,1.391-.5-.023-.562-.047-1.051-.078-1.469a5.4,5.4,0,0,0-.109-.937A2.941,2.941,0,0,0,6.7-12a1.611,1.611,0,0,0-1.172-.484,1.515,1.515,0,0,0-.891.328,3.3,3.3,0,0,0-.8.891,5.429,5.429,0,0,0-.594,1.3,5.613,5.613,0,0,0-.234,1.547c0,.137,0,.266.016.391a3.538,3.538,0,0,0,.047.391A.139.139,0,0,1,3-7.484a.761.761,0,0,1-.2.078c-.086.012-.172.023-.266.031a1.372,1.372,0,0,0-.234.047.907.907,0,0,1-.125.047A.263.263,0,0,1,2.078-7.3a1.135,1.135,0,0,1-.125-.094c-.043-.039-.105-.094-.187-.156A1.526,1.526,0,0,0,1.5-7.7c-.086-.039-.164-.078-.234-.109s-.121-.055-.172-.078A.13.13,0,0,1,1.031-8a5.272,5.272,0,0,1,.422-2,7.121,7.121,0,0,1,1.156-1.875A6.454,6.454,0,0,1,4.3-13.281a4.112,4.112,0,0,1,2.047-.547,3.981,3.981,0,0,1,1.516.266,3.723,3.723,0,0,1,1.094.688,3.723,3.723,0,0,1,.734.938,5.079,5.079,0,0,1,.453,1.047,5.584,5.584,0,0,1,.234.984A7.488,7.488,0,0,1,10.469-9.156ZM7.641-6.375a10.754,10.754,0,0,0-1.031.453,10.322,10.322,0,0,0-1.141.672,10.348,10.348,0,0,0-1.156.875A9.058,9.058,0,0,0,3.234-3.266a6.154,6.154,0,0,0-.859,1.25,3.379,3.379,0,0,0-.328.938,1.067,1.067,0,0,0,.031.594A.433.433,0,0,0,2.3-.219a1.562,1.562,0,0,0,1,.047A3.4,3.4,0,0,0,4.344-.7a6.928,6.928,0,0,0,1.016-.922c.332-.363.645-.734.938-1.109s.551-.758.781-1.125.414-.7.563-.969Zm0,0" fill="#fff"/>
                </g>
            </g>
            <g id="Group_27" data-name="Group 27">
                <g id="Group_26" data-name="Group 26" transform="translate(252.857 183.752)">
                    <path id="Path_217" data-name="Path 217" d="M4.188-20.859c0,.149-.012.434-.031.859s-.047.945-.078,1.547-.07,1.25-.109,1.969-.07,1.422-.109,2.141-.078,1.4-.109,2.063-.055,1.25-.062,1.75c-.023.3-.039.637-.047,1v2.906c.008.594.02,1.184.031,1.766s.02,1.148.031,1.687.035,1.012.047,1.438.016.789.016,1.078.016.461.016.531A.581.581,0,0,1,3.7.2a.3.3,0,0,1-.172.156.28.28,0,0,1-.2.016A.5.5,0,0,1,3.141.313.613.613,0,0,1,2.984.2.808.808,0,0,0,2.906.109C2.883.086,2.863.082,2.844.094S2.82.145,2.813.219a1.368,1.368,0,0,1-.187.609.664.664,0,0,1-.281.266.372.372,0,0,1-.266.047.208.208,0,0,1-.156-.109A.139.139,0,0,0,1.813.938,1.255,1.255,0,0,0,1.672.906.291.291,0,0,1,1.516.859.183.183,0,0,1,1.438.7,6.911,6.911,0,0,1,1.281-.641C1.258-1.191,1.25-1.812,1.25-2.5c0-.594,0-1.234.016-1.922s.016-1.391.016-2.109V-7.766c0-.414-.012-.836-.031-1.266v-.984q0-1.266.063-2.531c.039-.852.094-1.672.156-2.453s.129-1.516.2-2.2.133-1.3.188-1.828.094-.961.125-1.3a4.461,4.461,0,0,0,.031-.625.213.213,0,0,1,.016-.156.148.148,0,0,1,.109-.047,1.01,1.01,0,0,1,.156-.016.425.425,0,0,0,.141-.047.2.2,0,0,1,.172-.031.252.252,0,0,1,.125.063.552.552,0,0,1,.078.109.165.165,0,0,0,.125.047.3.3,0,0,0,.141-.047c.039-.031.07-.055.094-.078l.078-.078a.147.147,0,0,1,.109-.016,1.385,1.385,0,0,0,.234.047c.082,0,.125-.016.125-.047.02-.082.051-.117.094-.109a.288.288,0,0,1,.156.078.916.916,0,0,1,.156.172A.427.427,0,0,1,4.188-20.859Zm0,0" fill="#fff"/>
                </g>
            </g>
            <g id="Group_29" data-name="Group 29">
                <g id="Group_28" data-name="Group 28" transform="translate(147.987 218.31)">
                    <path id="Path_218" data-name="Path 218" d="M4.953-1.453a1.347,1.347,0,0,1-.125.578,1.516,1.516,0,0,1-.344.469,1.7,1.7,0,0,1-.5.3A1.64,1.64,0,0,1,3.375,0H.7V-5.641H3.422a1.134,1.134,0,0,1,.531.125,1.254,1.254,0,0,1,.406.328,1.537,1.537,0,0,1,.266.469,1.468,1.468,0,0,1,.094.516,1.484,1.484,0,0,1-.219.781,1.322,1.322,0,0,1-.594.531,1.414,1.414,0,0,1,.766.531A1.513,1.513,0,0,1,4.953-1.453Zm-.562-.094a1.04,1.04,0,0,0-.078-.391.973.973,0,0,0-.187-.344.983.983,0,0,0-.312-.25.813.813,0,0,0-.391-.094H1.266V-.484H3.375a.907.907,0,0,0,.391-.078A1.251,1.251,0,0,0,4.094-.8a1.224,1.224,0,0,0,.219-.344A1.137,1.137,0,0,0,4.391-1.547ZM1.266-5.156v2.078H3.2a.873.873,0,0,0,.375-.078,1.059,1.059,0,0,0,.313-.234.975.975,0,0,0,.2-.328,1.06,1.06,0,0,0,.078-.406,1.04,1.04,0,0,0-.078-.391.973.973,0,0,0-.187-.344.96.96,0,0,0-.3-.219.823.823,0,0,0-.359-.078Zm0,0"/>
                </g>
            </g>
            <g id="Group_31" data-name="Group 31">
                <g id="Group_30" data-name="Group 30" transform="translate(153.278 218.31)">
                    <path id="Path_219" data-name="Path 219" d="M2.391.078a2.075,2.075,0,0,1-.844-.172A2.06,2.06,0,0,1,.891-.562,2.159,2.159,0,0,1,.469-1.25a2.169,2.169,0,0,1-.156-.828,2.2,2.2,0,0,1,.156-.828,2.045,2.045,0,0,1,.422-.672,2.189,2.189,0,0,1,.656-.469,2.042,2.042,0,0,1,.828-.172,1.988,1.988,0,0,1,.828.172,2.009,2.009,0,0,1,.656.469,2.411,2.411,0,0,1,.422.688,2.1,2.1,0,0,1,.156.8v.125a.255.255,0,0,1-.016.094H.875a1.843,1.843,0,0,0,.156.609,1.733,1.733,0,0,0,.328.5,1.768,1.768,0,0,0,.484.328,1.43,1.43,0,0,0,.563.109A1.2,1.2,0,0,0,2.8-.391a2,2,0,0,0,.375-.156,1.158,1.158,0,0,0,.3-.234,1.187,1.187,0,0,0,.219-.3l.469.125a1.249,1.249,0,0,1-.281.422A1.869,1.869,0,0,1,3.469-.2a2.061,2.061,0,0,1-.5.2A2.218,2.218,0,0,1,2.391.078ZM3.906-2.3a1.424,1.424,0,0,0-.156-.594,1.708,1.708,0,0,0-.328-.484,1.516,1.516,0,0,0-.469-.312A1.534,1.534,0,0,0,2.391-3.8a1.539,1.539,0,0,0-.578.109,1.429,1.429,0,0,0-.469.313,1.56,1.56,0,0,0-.328.484A1.829,1.829,0,0,0,.859-2.3Zm0,0"/>
                </g>
            </g>
            <g id="Group_33" data-name="Group 33">
                <g id="Group_32" data-name="Group 32" transform="translate(157.942 218.31)">
                    <path id="Path_220" data-name="Path 220" d="M1.969.078a3.064,3.064,0,0,1-.953-.156A2.03,2.03,0,0,1,.234-.547l.25-.359a2.827,2.827,0,0,0,.7.438,2.12,2.12,0,0,0,.781.141,1.385,1.385,0,0,0,.8-.2.662.662,0,0,0,.3-.578.488.488,0,0,0-.078-.281.633.633,0,0,0-.234-.2,1.594,1.594,0,0,0-.391-.156c-.156-.051-.34-.1-.547-.156-.242-.051-.449-.1-.625-.156a2.127,2.127,0,0,1-.422-.2A.9.9,0,0,1,.5-2.547a.931.931,0,0,1-.078-.406A1.119,1.119,0,0,1,.547-3.5a1.16,1.16,0,0,1,.328-.406,1.685,1.685,0,0,1,.5-.234,2.248,2.248,0,0,1,.594-.078,2.406,2.406,0,0,1,.875.156,1.788,1.788,0,0,1,.625.406L3.2-3.328a1.379,1.379,0,0,0-.562-.359,1.949,1.949,0,0,0-.688-.125,1.657,1.657,0,0,0-.406.047,1.034,1.034,0,0,0-.312.141.644.644,0,0,0-.219.25.678.678,0,0,0-.078.344.66.66,0,0,0,.047.266.539.539,0,0,0,.188.172,1.227,1.227,0,0,0,.313.141,4.754,4.754,0,0,0,.484.125q.4.094.7.188a2.4,2.4,0,0,1,.5.219.955.955,0,0,1,.313.313.915.915,0,0,1,.109.453,1.1,1.1,0,0,1-.437.906A1.939,1.939,0,0,1,1.969.078Zm0,0"/>
                </g>
            </g>
            <g id="Group_35" data-name="Group 35">
                <g id="Group_34" data-name="Group 34" transform="translate(161.812 218.31)">
                    <path id="Path_221" data-name="Path 221" d="M2.578-.2a1.014,1.014,0,0,1-.141.078c-.055.023-.121.047-.2.078S2.055,0,1.953.016a1.539,1.539,0,0,1-.312.031A1.11,1.11,0,0,1,1.313,0a.865.865,0,0,1-.281-.141,1,1,0,0,1-.187-.25A.75.75,0,0,1,.766-.75V-3.719H.2v-.422H.766V-5.547h.547v1.406h.953v.422H1.313V-.906a.436.436,0,0,0,.156.344.572.572,0,0,0,.344.109.943.943,0,0,0,.406-.078,1.521,1.521,0,0,0,.219-.109Zm0,0"/>
                </g>
            </g>
            <g id="Group_37" data-name="Group 37">
                <g id="Group_36" data-name="Group 36" transform="translate(164.473 218.31)">
                    <path id="Path_222" data-name="Path 222"/>
                </g>
            </g>
            <g id="Group_39" data-name="Group 39">
                <g id="Group_38" data-name="Group 38" transform="translate(166.499 218.31)">
                    <path id="Path_223" data-name="Path 223" d="M2.719.078a1.648,1.648,0,0,1-.937-.266,2.106,2.106,0,0,1-.641-.672V1.688H.594V-4.141h.484v.8a2.086,2.086,0,0,1,.656-.625,1.684,1.684,0,0,1,.891-.25,1.671,1.671,0,0,1,.781.188,2.1,2.1,0,0,1,.625.469,2.135,2.135,0,0,1,.406.688,2.226,2.226,0,0,1,.156.813,2.41,2.41,0,0,1-.141.828,2.235,2.235,0,0,1-.391.688,1.985,1.985,0,0,1-.594.453A1.678,1.678,0,0,1,2.719.078ZM2.563-.391a1.257,1.257,0,0,0,.594-.141,1.528,1.528,0,0,0,.469-.391,1.765,1.765,0,0,0,.313-.531,1.789,1.789,0,0,0,.109-.609A1.672,1.672,0,0,0,3.922-2.7a2.163,2.163,0,0,0-.328-.531,1.414,1.414,0,0,0-.484-.359A1.344,1.344,0,0,0,2.5-3.734a1.42,1.42,0,0,0-.437.078,1.806,1.806,0,0,0-.422.219,1.632,1.632,0,0,0-.328.328.866.866,0,0,0-.172.391v1.281a2.231,2.231,0,0,0,.234.422,1.948,1.948,0,0,0,.344.328,2.557,2.557,0,0,0,.391.219A1.272,1.272,0,0,0,2.563-.391Zm0,0"/>
                </g>
            </g>
            <g id="Group_41" data-name="Group 41">
                <g id="Group_40" data-name="Group 40" transform="translate(171.401 218.31)">
                    <path id="Path_224" data-name="Path 224" d="M1.641.078a1.53,1.53,0,0,1-.547-.094A1.45,1.45,0,0,1,.656-.3,1.227,1.227,0,0,1,.359-.7a1.324,1.324,0,0,1-.094-.5.97.97,0,0,1,.125-.5A1.218,1.218,0,0,1,.75-2.109a1.6,1.6,0,0,1,.547-.25A2.432,2.432,0,0,1,2-2.453a3.666,3.666,0,0,1,.641.063,2.785,2.785,0,0,1,.578.141v-.359a1.192,1.192,0,0,0-.312-.875,1.136,1.136,0,0,0-.859-.328,1.928,1.928,0,0,0-.656.125,3.07,3.07,0,0,0-.672.375L.531-3.672a2.817,2.817,0,0,1,1.563-.547,1.662,1.662,0,0,1,1.219.438,1.624,1.624,0,0,1,.453,1.219V-.7c0,.148.063.219.188.219V0a.992.992,0,0,1-.2.031.469.469,0,0,1-.328-.109.368.368,0,0,1-.109-.281L3.3-.687a2,2,0,0,1-.734.578A2.249,2.249,0,0,1,1.641.078Zm.125-.406a1.813,1.813,0,0,0,.766-.156,1.353,1.353,0,0,0,.547-.437.345.345,0,0,0,.109-.141.549.549,0,0,0,.031-.156v-.687a3.292,3.292,0,0,0-.562-.141,2.912,2.912,0,0,0-.594-.062,1.655,1.655,0,0,0-.922.234.713.713,0,0,0-.359.625.817.817,0,0,0,.078.359.891.891,0,0,0,.2.3,1.054,1.054,0,0,0,.313.188A.956.956,0,0,0,1.766-.328Zm0,0"/>
                </g>
            </g>
            <g id="Group_43" data-name="Group 43">
                <g id="Group_42" data-name="Group 42" transform="translate(175.732 218.31)">
                    <path id="Path_225" data-name="Path 225" d="M2.672-3.672a1.7,1.7,0,0,0-.969.313,1.421,1.421,0,0,0-.562.781V0H.594V-4.141h.516v.984a1.961,1.961,0,0,1,.609-.734,1.4,1.4,0,0,1,.844-.281.461.461,0,0,1,.109.016Zm0,0"/>
                </g>
            </g>
            <g id="Group_45" data-name="Group 45">
                <g id="Group_44" data-name="Group 44" transform="translate(178.52 218.31)">
                    <path id="Path_226" data-name="Path 226" d="M2.578-.2a1.014,1.014,0,0,1-.141.078c-.055.023-.121.047-.2.078S2.055,0,1.953.016a1.539,1.539,0,0,1-.312.031A1.11,1.11,0,0,1,1.313,0a.865.865,0,0,1-.281-.141,1,1,0,0,1-.187-.25A.75.75,0,0,1,.766-.75V-3.719H.2v-.422H.766V-5.547h.547v1.406h.953v.422H1.313V-.906a.436.436,0,0,0,.156.344.572.572,0,0,0,.344.109.943.943,0,0,0,.406-.078,1.521,1.521,0,0,0,.219-.109Zm0,0"/>
                </g>
            </g>
            <g id="Group_47" data-name="Group 47">
                <g id="Group_46" data-name="Group 46" transform="translate(181.182 218.31)">
                    <path id="Path_227" data-name="Path 227" d="M1.969.078a3.064,3.064,0,0,1-.953-.156A2.03,2.03,0,0,1,.234-.547l.25-.359a2.827,2.827,0,0,0,.7.438,2.12,2.12,0,0,0,.781.141,1.385,1.385,0,0,0,.8-.2.662.662,0,0,0,.3-.578.488.488,0,0,0-.078-.281.633.633,0,0,0-.234-.2,1.594,1.594,0,0,0-.391-.156c-.156-.051-.34-.1-.547-.156-.242-.051-.449-.1-.625-.156a2.127,2.127,0,0,1-.422-.2A.9.9,0,0,1,.5-2.547a.931.931,0,0,1-.078-.406A1.119,1.119,0,0,1,.547-3.5a1.16,1.16,0,0,1,.328-.406,1.685,1.685,0,0,1,.5-.234,2.248,2.248,0,0,1,.594-.078,2.406,2.406,0,0,1,.875.156,1.788,1.788,0,0,1,.625.406L3.2-3.328a1.379,1.379,0,0,0-.562-.359,1.949,1.949,0,0,0-.688-.125,1.657,1.657,0,0,0-.406.047,1.034,1.034,0,0,0-.312.141.644.644,0,0,0-.219.25.678.678,0,0,0-.078.344.66.66,0,0,0,.047.266.539.539,0,0,0,.188.172,1.227,1.227,0,0,0,.313.141,4.754,4.754,0,0,0,.484.125q.4.094.7.188a2.4,2.4,0,0,1,.5.219.955.955,0,0,1,.313.313.915.915,0,0,1,.109.453,1.1,1.1,0,0,1-.437.906A1.939,1.939,0,0,1,1.969.078Zm0,0"/>
                </g>
            </g>
            <g id="Group_49" data-name="Group 49">
                <g id="Group_48" data-name="Group 48" transform="translate(185.051 218.31)">
                    <path id="Path_228" data-name="Path 228"/>
                </g>
            </g>
            <g id="Group_51" data-name="Group 51">
                <g id="Group_50" data-name="Group 50" transform="translate(187.077 218.31)">
                    <path id="Path_229" data-name="Path 229" d="M.8,0V-3.719H.219v-.422H.8V-4.25a1.973,1.973,0,0,1,.328-1.2,1.061,1.061,0,0,1,.891-.437,1.439,1.439,0,0,1,.469.078,2.185,2.185,0,0,1,.406.188l-.172.391a.732.732,0,0,0-.281-.141,1.149,1.149,0,0,0-.328-.047.662.662,0,0,0-.578.3,1.622,1.622,0,0,0-.187.859v.125H2.484v.422H1.344V0Zm0,0"/>
                </g>
            </g>
            <g id="Group_53" data-name="Group 53">
                <g id="Group_52" data-name="Group 52" transform="translate(189.699 218.31)">
                    <path id="Path_230" data-name="Path 230" d="M2.359.078a1.975,1.975,0,0,1-.828-.172A2.213,2.213,0,0,1,.875-.547a2.159,2.159,0,0,1-.422-.688,2.41,2.41,0,0,1-.141-.828,2.2,2.2,0,0,1,.156-.828,2.045,2.045,0,0,1,.422-.672,2.189,2.189,0,0,1,.656-.469,1.787,1.787,0,0,1,.813-.187,1.829,1.829,0,0,1,.828.188,2.028,2.028,0,0,1,.641.469,2.02,2.02,0,0,1,.437.672,2.277,2.277,0,0,1,.156.828,2.246,2.246,0,0,1-.156.828,1.913,1.913,0,0,1-.422.688,2.029,2.029,0,0,1-.656.453A1.988,1.988,0,0,1,2.359.078ZM.859-2.047a1.794,1.794,0,0,0,.109.641A1.893,1.893,0,0,0,1.3-.875a1.63,1.63,0,0,0,.469.359,1.4,1.4,0,0,0,.594.125,1.316,1.316,0,0,0,.578-.125,1.648,1.648,0,0,0,.484-.359,1.593,1.593,0,0,0,.328-.531,1.767,1.767,0,0,0,.125-.656A1.672,1.672,0,0,0,3.75-2.7a1.451,1.451,0,0,0-.328-.531,1.414,1.414,0,0,0-.484-.359,1.228,1.228,0,0,0-.578-.141,1.205,1.205,0,0,0-.578.141,1.58,1.58,0,0,0-.484.359A1.694,1.694,0,0,0,.969-2.7,1.866,1.866,0,0,0,.859-2.047Zm0,0"/>
                </g>
            </g>
            <g id="Group_55" data-name="Group 55">
                <g id="Group_54" data-name="Group 54" transform="translate(194.427 218.31)">
                    <path id="Path_231" data-name="Path 231" d="M2.672-3.672a1.7,1.7,0,0,0-.969.313,1.421,1.421,0,0,0-.562.781V0H.594V-4.141h.516v.984a1.961,1.961,0,0,1,.609-.734,1.4,1.4,0,0,1,.844-.281.461.461,0,0,1,.109.016Zm0,0"/>
                </g>
            </g>
            <g id="Group_57" data-name="Group 57">
                <g id="Group_56" data-name="Group 56" transform="translate(197.216 218.31)">
                    <path id="Path_232" data-name="Path 232"/>
                </g>
            </g>
            <g id="Group_59" data-name="Group 59">
                <g id="Group_58" data-name="Group 58" transform="translate(199.242 218.31)">
                    <path id="Path_233" data-name="Path 233" d="M.828,1.266a.979.979,0,0,0,.125.016h.125A.433.433,0,0,0,1.3,1.234a.361.361,0,0,0,.172-.172A2.334,2.334,0,0,0,1.641.672C1.7.5,1.8.281,1.922,0L.125-4.141H.672L2.219-.5,3.641-4.141h.516L2,1.2a.957.957,0,0,1-.281.406.856.856,0,0,1-.562.172A1.009,1.009,0,0,1,1,1.766c-.043,0-.1-.008-.172-.016Zm0,0"/>
                </g>
            </g>
            <g id="Group_61" data-name="Group 61">
                <g id="Group_60" data-name="Group 60" transform="translate(203.548 218.31)">
                    <path id="Path_234" data-name="Path 234" d="M2.359.078a1.975,1.975,0,0,1-.828-.172A2.213,2.213,0,0,1,.875-.547a2.159,2.159,0,0,1-.422-.688,2.41,2.41,0,0,1-.141-.828,2.2,2.2,0,0,1,.156-.828,2.045,2.045,0,0,1,.422-.672,2.189,2.189,0,0,1,.656-.469,1.787,1.787,0,0,1,.813-.187,1.829,1.829,0,0,1,.828.188,2.028,2.028,0,0,1,.641.469,2.02,2.02,0,0,1,.437.672,2.277,2.277,0,0,1,.156.828,2.246,2.246,0,0,1-.156.828,1.913,1.913,0,0,1-.422.688,2.029,2.029,0,0,1-.656.453A1.988,1.988,0,0,1,2.359.078ZM.859-2.047a1.794,1.794,0,0,0,.109.641A1.893,1.893,0,0,0,1.3-.875a1.63,1.63,0,0,0,.469.359,1.4,1.4,0,0,0,.594.125,1.316,1.316,0,0,0,.578-.125,1.648,1.648,0,0,0,.484-.359,1.593,1.593,0,0,0,.328-.531,1.767,1.767,0,0,0,.125-.656A1.672,1.672,0,0,0,3.75-2.7a1.451,1.451,0,0,0-.328-.531,1.414,1.414,0,0,0-.484-.359,1.228,1.228,0,0,0-.578-.141,1.205,1.205,0,0,0-.578.141,1.58,1.58,0,0,0-.484.359A1.694,1.694,0,0,0,.969-2.7,1.866,1.866,0,0,0,.859-2.047Zm0,0"/>
                </g>
            </g>
            <g id="Group_63" data-name="Group 63">
                <g id="Group_62" data-name="Group 62" transform="translate(208.275 218.31)">
                    <path id="Path_235" data-name="Path 235" d="M1.891.078a1.164,1.164,0,0,1-1-.437A2.28,2.28,0,0,1,.563-1.7V-4.141h.531v2.328c0,.949.32,1.422.969,1.422a1.405,1.405,0,0,0,.469-.078A1.834,1.834,0,0,0,2.953-.7,1.579,1.579,0,0,0,3.3-1.062a2.069,2.069,0,0,0,.266-.469V-4.141h.531V-.7c0,.148.063.219.188.219V0a1.492,1.492,0,0,1-.156.016H4.047a.412.412,0,0,1-.312-.125.556.556,0,0,1-.109-.359V-.937a1.975,1.975,0,0,1-.75.75A1.9,1.9,0,0,1,1.891.078Zm0,0"/>
                </g>
            </g>
            <g id="Group_65" data-name="Group 65">
                <g id="Group_64" data-name="Group 64" transform="translate(212.995 218.31)">
                    <path id="Path_236" data-name="Path 236" d="M2.672-3.672a1.7,1.7,0,0,0-.969.313,1.421,1.421,0,0,0-.562.781V0H.594V-4.141h.516v.984a1.961,1.961,0,0,1,.609-.734,1.4,1.4,0,0,1,.844-.281.461.461,0,0,1,.109.016Zm0,0"/>
                </g>
            </g>
            <g id="Group_67" data-name="Group 67">
                <g id="Group_66" data-name="Group 66" transform="translate(215.784 218.31)">
                    <path id="Path_237" data-name="Path 237"/>
                </g>
            </g>
            <g id="Group_69" data-name="Group 69">
                <g id="Group_68" data-name="Group 68" transform="translate(217.81 218.31)">
                    <path id="Path_238" data-name="Path 238" d="M4.953-1.453a1.347,1.347,0,0,1-.125.578,1.516,1.516,0,0,1-.344.469,1.7,1.7,0,0,1-.5.3A1.64,1.64,0,0,1,3.375,0H.7V-5.641H3.422a1.134,1.134,0,0,1,.531.125,1.254,1.254,0,0,1,.406.328,1.537,1.537,0,0,1,.266.469,1.468,1.468,0,0,1,.094.516,1.484,1.484,0,0,1-.219.781,1.322,1.322,0,0,1-.594.531,1.414,1.414,0,0,1,.766.531A1.513,1.513,0,0,1,4.953-1.453Zm-.562-.094a1.04,1.04,0,0,0-.078-.391.973.973,0,0,0-.187-.344.983.983,0,0,0-.312-.25.813.813,0,0,0-.391-.094H1.266V-.484H3.375a.907.907,0,0,0,.391-.078A1.251,1.251,0,0,0,4.094-.8a1.224,1.224,0,0,0,.219-.344A1.137,1.137,0,0,0,4.391-1.547ZM1.266-5.156v2.078H3.2a.873.873,0,0,0,.375-.078,1.059,1.059,0,0,0,.313-.234.975.975,0,0,0,.2-.328,1.06,1.06,0,0,0,.078-.406,1.04,1.04,0,0,0-.078-.391.973.973,0,0,0-.187-.344.96.96,0,0,0-.3-.219.823.823,0,0,0-.359-.078Zm0,0"/>
                </g>
            </g>
            <g id="Group_71" data-name="Group 71">
                <g id="Group_70" data-name="Group 70" transform="translate(223.101 218.31)">
                    <path id="Path_239" data-name="Path 239" d="M.594,0V-4.141h.547V0Zm0-5.016v-.8h.547v.8Zm0,0"/>
                </g>
            </g>
            <g id="Group_73" data-name="Group 73">
                <g id="Group_72" data-name="Group 72" transform="translate(224.833 218.31)">
                    <path id="Path_240" data-name="Path 240" d="M3.563,0,2.031-2.125,1.141-1.3V0H.594V-5.812h.547v3.953L3.469-4.141h.609l-1.687,1.7L4.141,0Zm0,0"/>
                </g>
            </g>
            <g id="Group_75" data-name="Group 75">
                <g id="Group_74" data-name="Group 74" transform="translate(229.044 218.31)">
                    <path id="Path_241" data-name="Path 241" d="M2.391.078a2.075,2.075,0,0,1-.844-.172A2.06,2.06,0,0,1,.891-.562,2.159,2.159,0,0,1,.469-1.25a2.169,2.169,0,0,1-.156-.828,2.2,2.2,0,0,1,.156-.828,2.045,2.045,0,0,1,.422-.672,2.189,2.189,0,0,1,.656-.469,2.042,2.042,0,0,1,.828-.172,1.988,1.988,0,0,1,.828.172,2.009,2.009,0,0,1,.656.469,2.411,2.411,0,0,1,.422.688,2.1,2.1,0,0,1,.156.8v.125a.255.255,0,0,1-.016.094H.875a1.843,1.843,0,0,0,.156.609,1.733,1.733,0,0,0,.328.5,1.768,1.768,0,0,0,.484.328,1.43,1.43,0,0,0,.563.109A1.2,1.2,0,0,0,2.8-.391a2,2,0,0,0,.375-.156,1.158,1.158,0,0,0,.3-.234,1.187,1.187,0,0,0,.219-.3l.469.125a1.249,1.249,0,0,1-.281.422A1.869,1.869,0,0,1,3.469-.2a2.061,2.061,0,0,1-.5.2A2.218,2.218,0,0,1,2.391.078ZM3.906-2.3a1.424,1.424,0,0,0-.156-.594,1.708,1.708,0,0,0-.328-.484,1.516,1.516,0,0,0-.469-.312A1.534,1.534,0,0,0,2.391-3.8a1.539,1.539,0,0,0-.578.109,1.429,1.429,0,0,0-.469.313,1.56,1.56,0,0,0-.328.484A1.829,1.829,0,0,0,.859-2.3Zm0,0"/>
                </g>
            </g>
        </g>
    </g>
</svg>
