<svg width="201" height="112" viewBox="0 0 201 112" fill="none" xmlns="http://www.w3.org/2000/svg">
    <path d="M195.826 0.267456H5.17447C2.31321 0.267456 0 2.24996 0 4.69536V107.305C0 109.75 2.31321 111.736 5.17447 111.736H195.826C198.687 111.736 201 109.753 201 107.308V4.69536C201 2.25301 198.687 0.267456 195.826 0.267456ZM61.7306 33.4646C62.2645 33.632 62.8232 33.8909 63.2075 34.2442C66.5243 37.2529 68.6098 40.7855 69.1792 44.9241C69.2895 45.722 69.3393 46.526 69.4176 47.3269C69.3607 49.818 68.8411 52.2298 67.8446 54.5656C67.7378 54.8153 67.5279 55.0407 67.3322 55.2539C66.8695 55.7746 66.3748 55.8172 66.0261 55.2508C65.5706 54.5047 65.1862 53.7038 64.9656 52.8846C64.293 50.3631 63.6737 47.8294 63.1079 45.2896C62.3854 42.0402 61.7342 38.7786 61.0616 35.5232C60.9619 35.0542 60.9157 34.5761 60.8694 34.1041C60.8196 33.562 61.179 33.294 61.7306 33.4646ZM30.9721 60.2573C28.4098 60.9852 25.7976 61.1496 23.1428 60.9425C22.5164 60.8877 22.3278 61.0308 22.221 61.5364C21.6659 64.1523 21.068 66.7713 20.463 69.3811C20.4203 69.5882 20.1996 69.9293 20.0502 69.9323C18.1818 69.9719 16.3099 69.9597 14.3099 69.9597C14.5946 68.6168 14.8401 67.3834 15.1141 66.1592C16.6195 59.3985 18.1427 52.641 19.6374 45.8773C19.7299 45.451 19.8758 45.1556 20.3918 45.0886C24.3029 44.583 28.2176 44.242 32.1216 45.0672C35.5309 45.7859 37.8975 47.8294 38.2996 50.2382C39.1146 55.0437 35.8476 58.8839 30.9721 60.2573ZM55.8088 69.9871C54.517 69.9506 53.2145 69.9506 51.9226 69.9841C51.2571 70.0085 51.0365 69.7953 51.1005 69.241C51.1966 68.3549 51.2358 67.4626 51.307 66.5246C50.2571 67.4626 49.4279 68.4005 48.3745 69.0949C46.1894 70.5384 43.6876 70.8703 41.1538 69.8714C38.6484 68.8908 37.6199 66.9814 37.5167 64.7309C37.2925 60.0046 39.2142 56.0944 43.8762 53.3718C46.8015 51.6634 50.1539 51.1396 53.6308 51.3071C55.4067 51.3924 57.1683 51.7548 58.9405 51.9619C59.6559 52.0502 59.7519 52.3882 59.6345 52.9181C58.8516 56.4446 58.0081 59.9619 57.332 63.5036C56.969 65.3857 56.8622 67.3042 56.7199 69.2106C56.6772 69.7801 56.517 70.0115 55.8088 69.9871ZM61.8801 76.157C60.752 77.7619 60.0295 79.5677 59.1042 81.2762C58.9619 81.532 58.6381 81.9735 58.5313 81.9431C58.1291 81.8396 57.5597 81.6416 57.4565 81.3706C57.2039 80.7037 56.9583 79.9362 57.1078 79.2754C57.9085 75.691 59.6452 72.3838 61.5918 69.1619C65.3677 62.9129 70.0973 57.2211 75.6241 52.038C78.7701 49.0901 82.0335 46.2245 85.393 43.4593C90.4464 39.2994 96.0693 35.782 102.347 33.0595C105.244 31.8048 108.265 30.8638 111.454 30.3522C111.988 30.2639 112.518 30.1543 113.045 30.0568C113.045 30.0568 119.621 28.9727 122.504 33.1966C122.504 33.1966 123.29 34.2228 123.137 34.5639C122.956 34.9598 122.198 35.3405 121.643 35.4075C116.379 36.0774 111.272 37.256 106.372 38.9796C103.525 39.9785 100.767 41.1875 98.0516 42.433C92.1404 45.1464 87.3396 49.0627 82.6563 53.0825C77.6953 57.3338 73.0582 61.8287 69.0119 66.7317C66.4887 69.7892 64.1328 72.9533 61.8801 76.157ZM102.101 64.667C99.7384 68.4493 95.9732 70.2886 92.1653 70.383C86.635 70.3952 83.4855 68.6411 82.3253 65.4892C80.4249 60.3091 84.0762 52.2207 93.0159 51.3711C95.6921 51.1183 98.1903 51.4046 100.386 52.7993C102.475 54.1271 103.489 55.9756 103.65 58.1743C103.817 60.4553 103.365 62.6449 102.101 64.667ZM125.885 61.6186C125.308 64.2102 124.739 66.7956 124.127 69.3781C124.07 69.6034 123.757 69.9537 123.55 69.9597C121.757 69.9993 119.959 69.9719 118.166 69.9597C118.084 69.9597 118.009 69.9049 117.838 69.8379C118.159 68.3457 118.507 66.8535 118.821 65.3552C119.294 63.059 119.757 60.7568 120.191 58.4545C120.258 58.0616 120.23 57.6475 120.177 57.2516C120.006 55.8781 118.835 55.2386 117.276 55.668C115.767 56.0791 114.874 57.0719 114.134 58.1804C113.045 59.8066 112.664 61.6094 112.294 63.4245C111.888 65.3948 111.475 67.3743 111.016 69.3415C110.966 69.573 110.65 69.9354 110.44 69.9415C108.6 69.9902 106.749 69.9689 104.706 69.9689C106.03 63.8325 107.322 57.8089 108.625 51.7396C110.393 51.7396 112.084 51.7396 113.924 51.7396C113.835 52.7049 113.749 53.6307 113.66 54.5869C114.269 54.0966 114.806 53.649 115.369 53.2287C117.429 51.6908 119.803 51.0087 122.536 51.3924C124.796 51.7091 126.358 53.1313 126.614 55.1107C126.899 57.3155 126.365 59.4625 125.885 61.6186ZM145.44 61.5485C143.487 62.3769 141.376 62.6905 139.227 62.8002C137.881 62.8672 136.529 62.8124 135.148 62.8124C135.01 64.667 136.476 65.9825 138.686 66.214C140.835 66.4393 142.906 66.147 144.914 65.4892C145.134 65.4192 145.355 65.3461 145.576 65.2821C145.622 65.2669 145.689 65.2791 145.839 65.2791C145.96 66.3571 146.116 67.4504 146.181 68.5406C146.188 68.7538 145.903 69.101 145.665 69.1832C142.18 70.4074 138.561 70.8307 134.889 70.0145C131.458 69.2593 129.586 67.158 129.205 64.2223C128.664 60.0685 130.084 56.4202 133.867 53.6703C136.981 51.4015 140.629 50.692 144.597 51.703C147.241 52.376 148.721 54.0662 148.921 56.4111C149.113 58.7164 147.939 60.4796 145.44 61.5485ZM166.06 61.6277C163.441 62.6692 160.626 62.8215 157.796 62.8733C157.213 62.8824 156.629 62.8733 156.01 62.8733C155.807 64.6304 157.28 65.9764 159.512 66.2079C161.597 66.4211 163.611 66.1561 165.572 65.541C165.9 65.4405 166.227 65.3339 166.661 65.1968C166.8 66.351 166.953 67.4413 167.021 68.5284C167.031 68.7416 166.754 69.0918 166.512 69.174C162.967 70.4196 159.305 70.8459 155.572 69.975C152.22 69.1893 150.451 67.1002 150.049 64.2376C149.529 60.5801 150.625 57.2668 153.608 54.5595C156.811 51.6512 160.779 50.6128 165.32 51.6847C168.103 52.3425 169.583 54.054 169.754 56.4659C169.921 58.823 168.668 60.5984 166.06 61.6277ZM185.566 56.1553C185.53 56.2832 185.26 56.4446 185.078 56.4689C180.953 56.9318 179.231 58.1804 178.202 61.7861C177.487 64.2954 177.017 66.8535 176.416 69.3872C176.37 69.5974 176.153 69.9354 176.003 69.9384C174.074 69.975 172.145 69.9628 170.092 69.9628C170.37 68.6381 170.612 67.4382 170.886 66.2353C171.967 61.6064 173.088 56.9836 173.533 52.2634C173.548 52.0685 173.861 51.7396 174.042 51.7335C175.619 51.6908 177.213 51.7091 178.932 51.7091C178.811 52.979 178.697 54.1667 178.587 55.3574C180.512 52.9364 182.729 50.9813 186.69 51.3345C186.302 53.0247 185.953 54.593 185.566 56.1553Z" fill="black"/>
</svg>
