<svg width="40" height="35" viewBox="0 0 40 35" fill="none" xmlns="http://www.w3.org/2000/svg">
    <path d="M12.8876 22.6272H12.8894C12.8909 22.6272 12.8925 22.627 12.894 22.627H34.1406C34.6637 22.627 35.1236 22.3233 35.2673 21.8833L39.9548 7.52782C40.0559 7.21833 39.9851 6.88561 39.7638 6.62873C39.5422 6.37185 39.1959 6.22071 38.8281 6.22071H10.1849L9.34723 2.9221C9.22791 2.45293 8.75244 2.11915 8.20313 2.11915H1.17188C0.524597 2.11915 0 2.57817 0 3.14454C0 3.71091 0.524597 4.16993 1.17188 4.16993H7.26318C7.4115 4.75446 11.272 19.9553 11.4941 20.8299C10.2487 21.3036 9.375 22.3901 9.375 23.6524C9.375 25.3485 10.9522 26.7285 12.8906 26.7285H34.1406C34.7879 26.7285 35.3125 26.2695 35.3125 25.7031C35.3125 25.1368 34.7879 24.6777 34.1406 24.6777H12.8906C12.2446 24.6777 11.7188 24.2177 11.7188 23.6524C11.7188 23.0879 12.2427 22.6286 12.8876 22.6272V22.6272ZM37.2745 8.27149L33.2565 20.5762H13.8306L10.7056 8.27149H37.2745Z" fill="black"/>
    <path d="M11.7188 29.8047C11.7188 31.5009 13.2959 32.8809 15.2344 32.8809C17.1729 32.8809 18.75 31.5009 18.75 29.8047C18.75 28.1085 17.1729 26.7285 15.2344 26.7285C13.2959 26.7285 11.7188 28.1085 11.7188 29.8047ZM15.2344 28.7793C15.8804 28.7793 16.4062 29.2394 16.4062 29.8047C16.4062 30.37 15.8804 30.8301 15.2344 30.8301C14.5883 30.8301 14.0625 30.37 14.0625 29.8047C14.0625 29.2394 14.5883 28.7793 15.2344 28.7793Z" fill="black"/>
    <path d="M28.2812 29.8047C28.2812 31.5009 29.8584 32.8809 31.7969 32.8809C33.7354 32.8809 35.3125 31.5009 35.3125 29.8047C35.3125 28.1085 33.7354 26.7285 31.7969 26.7285C29.8584 26.7285 28.2812 28.1085 28.2812 29.8047ZM31.7969 28.7793C32.4429 28.7793 32.9688 29.2394 32.9688 29.8047C32.9688 30.37 32.4429 30.8301 31.7969 30.8301C31.1508 30.8301 30.625 30.37 30.625 29.8047C30.625 29.2394 31.1508 28.7793 31.7969 28.7793Z" fill="black"/>
</svg>
